<svg width="512" height="512" viewBox="0 0 512 512" fill="none" xmlns="http://www.w3.org/2000/svg">
  <rect width="512" height="512" rx="128" fill="#3B82F6"/>
  <path d="M256 128C185.307 128 128 185.307 128 256C128 326.693 185.307 384 256 384C326.693 384 384 326.693 384 256C384 185.307 326.693 128 256 128ZM256 352C203.019 352 160 308.981 160 256C160 203.019 203.019 160 256 160C308.981 160 352 203.019 352 256C352 308.981 308.981 352 256 352Z" fill="white"/>
  <path d="M256 192C228.718 192 206.4 214.318 206.4 241.6C206.4 268.882 228.718 291.2 256 291.2C283.282 291.2 305.6 268.882 305.6 241.6C305.6 214.318 283.282 192 256 192ZM256 275.2C238.327 275.2 224 260.873 224 243.2C224 225.527 238.327 211.2 256 211.2C273.673 211.2 288 225.527 288 243.2C288 260.873 273.673 275.2 256 275.2Z" fill="white"/>
  <path d="M320 224C320 241.673 305.673 256 288 256C270.327 256 256 241.673 256 224C256 206.327 270.327 192 288 192C305.673 192 320 206.327 320 224Z" fill="white"/>
  <path d="M256 320C256 337.673 241.673 352 224 352C206.327 352 192 337.673 192 320C192 302.327 206.327 288 224 288C241.673 288 256 302.327 256 320Z" fill="white"/>
</svg> 