<svg xmlns="http://www.w3.org/2000/svg" viewBox="0 0 400 400" fill="none" shape-rendering="auto"><metadata xmlns:rdf="http://www.w3.org/1999/02/22-rdf-syntax-ns#" xmlns:xsi="http://www.w3.org/2001/XMLSchema-instance" xmlns:dc="http://purl.org/dc/elements/1.1/" xmlns:dcterms="http://purl.org/dc/terms/"><rdf:RDF><rdf:Description><dc:title>Adventurer Neutral</dc:title><dc:creator>Lisa Wischofsky</dc:creator><dc:source xsi:type="dcterms:URI">https://www.figma.com/community/file/1184595184137881796</dc:source><dcterms:license xsi:type="dcterms:URI">https://creativecommons.org/licenses/by/4.0/</dcterms:license><dc:rights>Remix of „Adventurer Neutral” (https://www.figma.com/community/file/1184595184137881796) by „Lisa Wischofsky”, licensed under „CC BY 4.0” (https://creativecommons.org/licenses/by/4.0/)</dc:rights></rdf:Description></rdf:RDF></metadata><mask id="viewboxMask"><rect width="400" height="400" rx="0" ry="0" x="0" y="0" fill="#fff" /></mask><g mask="url(#viewboxMask)"><rect fill="#ecad80" width="400" height="400" x="0" y="0" /><g transform="translate(-279 -322)"><path d="M556 424.07a65.21 65.21 0 0 1 41.05 13.82c18.48 14.28 28.2 38.6 24.23 61.66-.97 7.55-3.9 14.28-6.79 21.23-1.4.65-2.88 1.52-4.42 1.77-2.33.07-4.8-.9-7.04-1.55a178.7 178.7 0 0 0-49.03-7.62c-15.06.4-29.61 2.56-43.09 9.64-3.05 1.28-5.82 4.03-8.96 1.26-8.58-12.42-11.56-28.46-9.81-43.32a65.03 65.03 0 0 1 19.83-39A65.11 65.11 0 0 1 556 424.07Z" fill="#000"/><path d="M557 429.85c13.7-.2 27.1 4.84 37.68 13.45a59.16 59.16 0 0 1 19.44 29.7 59.28 59.28 0 0 1-4.3 43.5c-5.35-.6-10.17-2.64-15.46-3.77-16.05-3.75-32.92-5.8-49.39-4.47a92 92 0 0 0-39.3 11.6c-7.05-12.13-10.2-27-7.45-40.83a59.55 59.55 0 0 1 23.8-38.03c10.11-7.24 22.5-11.37 34.98-11.15Z" fill="#fff"/><path d="M381.31 447.08a55.36 55.36 0 0 1 37.02 9.56 55.02 55.02 0 0 1 22.82 35.91c1.2 8.25.97 17.09-1.57 25.09a54.9 54.9 0 0 1-30.47 34.5 55.24 55.24 0 0 1-41.44 1.17 54.92 54.92 0 0 1-27.48-22.52c-5.05-8.05-7.68-17.27-8.31-26.7-.33-12.57 3.39-25.15 11-35.22a55.1 55.1 0 0 1 38.43-21.8Z" fill="#000"/><path d="M376.49 453.67c18.14-4.16 37.8 3.04 49.17 17.7 8.7 11.04 12.73 26.33 9.55 40.13a48.84 48.84 0 0 1-14.55 26.16 49.53 49.53 0 0 1-29.63 13.27c-19.64 1.82-39.23-9.24-48.03-26.86a49.25 49.25 0 0 1 33.5-70.4Z" fill="#fff"/><path d="M519.39 474.75c8.57-2.25 17.85 3.55 19.35 12.31 1.85 8.26-3.88 16.87-12.14 18.52-9.15 2.3-18.91-5.05-19.05-14.53-.72-7.5 4.64-14.5 11.84-16.3ZM403.4 485.62c6.37-2.18 13.28.5 17.27 5.7 4.54 5.94 4.18 14.91-1.03 20.32-5.02 5.79-14.5 6.76-20.65 2.39a15.82 15.82 0 0 1-6.92-13c-.26-6.95 4.69-13.5 11.33-15.4Z" fill="#000"/></g><g transform="translate(-279 -322)"><path d="M606.99 397.59c1.52-.4 3.26.6 4.74.97-.11 1.2-.17 2.45-.47 3.61-1.58 1.5-3.57 2.6-5.39 3.78-22.77 14.6-46.18 28.4-70.32 40.63-11.53 5.73-23.34 11.3-35.55 15.44-6.86 2.19-13.72 4.28-21 3.44-3.32-.31-6.17-3.02-6.24-6.43-.04-4.22 3-8.6 5.08-12.15 1.28-2.68 4.5-3.04 7-4.12 37.23-13.75 74.43-27.65 111.66-41.45 3.48-1.23 6.9-2.81 10.5-3.72ZM338.99 432.64c29.88 5.94 60.13 12.03 90.02 18.02 2.27.32 4.6.07 6.85.45 2.45 2.3 3.64 6.2 4.54 9.37 1.17 4.09-.15 8.77-3.9 11-4 2.63-9.92 2.17-14.5 1.9-8.75-1-17.42-3.8-25.69-6.74-19.61-7.16-38.69-16.93-56.97-26.97-1.67-.96-3.68-1.94-4.79-3.55-.38-2.88 1.85-4.16 4.44-3.48Z" fill="#000"/></g><g transform="translate(-279 -322)"><path d="M579.99 568.69c2.42 1 1.92 3.4 1.38 5.45-6.78 13.35-16.08 25.18-28.35 33.9-17.2 12.5-38.88 18.4-60.02 17.58-26.81-.96-53.07-12.04-73.44-29.31-.4-2.42-.5-3.7 1.45-5.42 51.83-7.13 106.78-15.03 158.98-22.2Z" fill="#000"/><path d="M573.86 575.51a83.4 83.4 0 0 1-36.37 35 89.24 89.24 0 0 1-40.5 9.18c-24.7.18-49-9.01-68.57-23.87 47.93-6.6 97.73-13.8 145.44-20.31Z" fill="#8F2E45"/></g><g transform="translate(-279 -322)"></g></g></svg>