<svg xmlns="http://www.w3.org/2000/svg" viewBox="0 0 400 400" fill="none" shape-rendering="auto"><metadata xmlns:rdf="http://www.w3.org/1999/02/22-rdf-syntax-ns#" xmlns:xsi="http://www.w3.org/2001/XMLSchema-instance" xmlns:dc="http://purl.org/dc/elements/1.1/" xmlns:dcterms="http://purl.org/dc/terms/"><rdf:RDF><rdf:Description><dc:title>Adventurer Neutral</dc:title><dc:creator>Lisa Wischofsky</dc:creator><dc:source xsi:type="dcterms:URI">https://www.figma.com/community/file/1184595184137881796</dc:source><dcterms:license xsi:type="dcterms:URI">https://creativecommons.org/licenses/by/4.0/</dcterms:license><dc:rights>Remix of „Adventurer Neutral” (https://www.figma.com/community/file/1184595184137881796) by „Lisa Wischofsky”, licensed under „CC BY 4.0” (https://creativecommons.org/licenses/by/4.0/)</dc:rights></rdf:Description></rdf:RDF></metadata><mask id="viewboxMask"><rect width="400" height="400" rx="0" ry="0" x="0" y="0" fill="#fff" /></mask><g mask="url(#viewboxMask)"><rect fill="#9e5622" width="400" height="400" x="0" y="0" /><g transform="translate(-279 -322)"><path d="M559.03 444.54c11.35-.74 22.5-.03 33.16 4.25 11.38 4.42 21.3 12.4 26.22 23.8 1.35 3.28 3.11 7.55 2.23 11.1-3.07 3.25-8.56 1.02-12.56 1.03-12.66-.6-25.44-.46-38.07.6-13.92 1-28.4 1.71-41.93 5.23-8.57 1.76-17 4.47-25.23 7.41-3.69 1.26-6.8 2.95-10.86 2.2 1.31-16.82 12.96-31.4 26.26-40.94a87.3 87.3 0 0 1 40.78-14.69Z" fill="#000"/><path d="M572.98 450.16c11.61 1.09 23.19 4.98 31.87 13a36.2 36.2 0 0 1 10.19 16.72c-16.72-2.17-34.3-.87-51.09.1-7.64.88-15.37.98-22.94 2.25 1.15-9.27 2.15-18.43 1.05-27.77 10.01-3.52 20.28-5.48 30.92-4.3Z" fill="#fff"/><path d="M369.22 468.68c17.1-2.83 35.63-.23 50.88 8.19 8.69 4.83 16.86 12.07 20.6 21.48.74 2.06 1.6 4.59-.72 5.96-2.65.08-5.37-.59-8-1-9.4-1.82-19.4-2.12-28.98-2.58-10.7-.45-21.3.47-32 .59-12.48.84-24.76 2.93-37.09 5-2.44.58-3.13-2.39-3.06-4.24.15-12.37 9.08-22.32 19.76-27.45 6-2.54 12.23-4.67 18.62-5.95Z" fill="#000"/><path d="M516.85 467.34c-.57 6.96-.53 13.45.13 20.4-6.16 1.8-12.2 3.88-18.22 6.1 3.2-10.63 9.88-19.24 18.1-26.5ZM374.58 473.35c9.9-.51 19.68.03 29.2 2.93 12.4 3.71 23.8 10.16 30.58 21.56-20.19-3.58-39.98-2.6-60.31-2.46.88-7.35.67-14.65.53-22.03ZM350.49 480.58c-.28 5.86-.25 11.64 0 17.5-4.7.28-9.4.74-14.03 1.68 1.62-7 5.15-12.07 10.65-16.56 1.13-.89 2.26-1.76 3.39-2.62Z" fill="#fff"/></g><g transform="translate(-279 -322)"><g fill="#000"><path d="M517.07 379.66c.86-.91 2.17-2.3 1.77-3.56-.35-2.45-3.58-3.11-5.22-1.46a221.7 221.7 0 0 0-8.34 7.33c-2.16 1.96-4.3 3.92-6.5 5.8a117.9 117.9 0 0 1-3.06 2.73c-2.64 2.3-5.21 4.56-7.32 7.5.33.33.6.68.88 1.02.72.9 1.4 1.74 2.73 1.81 1.5-.08 2.71-1.13 3.82-2.1l.41-.35c4.3-4 8.7-7.9 13.1-11.8 2.52-2.24 5.05-4.47 7.55-6.73l.06-.07.12-.12ZM539.69 378.66c.54-1.8-.18-2.95-1.6-4-2-.34-3.84.74-5.58 1.76-.44.26-.87.51-1.3.74-4.43 2.64-8.92 5.2-13.4 7.77-4.83 2.76-9.66 5.51-14.4 8.37-1.63.86-1.65 2.04-1.68 3.44 0 .45-.02.93-.08 1.42.46.1.9.24 1.31.38 1.2.4 2.27.75 3.58-.05 5.06-2.8 10.07-5.7 15.09-8.62a959.63 959.63 0 0 1 14.42-8.28c1.36-.8 2.87-1.67 3.65-2.94ZM566.39 378.4c2.1-.74 4.24.22 4.44 2.6-.08 2.3-1.76 2.9-3.53 3.51l-.77.28c-12.18 3.72-24.35 7.5-36.5 11.31-.37.09-.73.2-1.08.3-1.34.4-2.64.78-4 .08-1.82-1.26-1.8-4.32.36-5.22 1.8-.82 3.73-1.38 5.65-1.93a4048.39 4048.39 0 0 0 14.1-4.35c7.1-2.22 14.2-4.44 21.33-6.58ZM589.38 390.36c1.02-1.63.62-2.97-.45-4.43-2.25-.73-4.9-.11-7.4.47-.87.2-1.72.4-2.52.53-2.84.58-5.7 1.14-8.54 1.7h-.02c-4.14.81-8.27 1.62-12.4 2.5-1.87.47-3.69 1.64-3.1 3.87.65 2.02 2.02 2.45 4.03 2.12 4.01-.7 8-1.52 12-2.35 3.85-.8 7.7-1.6 11.56-2.27l1.3-.26c1.93-.36 4.05-.75 5.54-1.88ZM405.8 394.7c1.93 1.26 3.85 2.5 5.81 3.7.74.48 1.5.94 2.25 1.4 1.73 1.05 3.47 2.11 5 3.4 1.7 1.35 1.2 4.27-.83 5-1.8.35-3.06-.44-4.43-1.29l-.94-.56c-4.3-2.78-8.62-5.51-12.95-8.25l-4.17-2.64c-.1-.08-.22-.17-.35-.25l-.37-.27c-1.1-.75-2.42-1.66-2.4-2.93-.35-2.43 2.22-4.08 4.37-2.87 3.08 1.7 6.05 3.64 9.01 5.57Z"/><path d="M383.94 395.53a45.88 45.88 0 0 0-5.95-1.72c-2.5-.5-4.12 2.02-3.31 4.28 1.14 1.27 2.56 1.75 4.08 2.26l.4.14.32.1c4.02 1.26 8.03 2.55 12.03 3.85h.03c4.14 1.34 8.27 2.68 12.42 3.96 2.46.78 4.88.57 5.36-2.42-.17-2.11-2-2.8-3.72-3.44l-.15-.05-.23-.09-.5-.2c-6.06-1.95-12.14-3.89-18.22-5.83-.85-.26-1.7-.55-2.56-.84ZM587.13 395.34c3.45-.22 6.9-.28 10.37-.34 2.5-.05 5-.1 7.5-.2.4.03.84.03 1.3.03 1.67 0 3.6 0 4.35 1.53 1.26 1.74-.2 3.78-2.02 4.19-2.91.62-6.04.6-9.1.58-1.19 0-2.37-.01-3.53.02-1 0-2 .04-3 .07-1.68.05-3.36.1-5.04.04-1.22 0-3.12-.35-3.5-1.7a3 3 0 0 1 2.67-4.22ZM360.28 402.87c-2.04-.1-4.17-.2-6.08.32-1.5 1.2-1.47 3.44-.15 4.8 1.66.7 3.64.86 5.45 1l.16.01.32.03c3.43.16 6.85.37 10.27.58 3.92.25 7.83.49 11.74.66.85.02 1.72.1 2.6.18 1.84.18 3.72.35 5.44-.06a2.78 2.78 0 0 0 1.12-4.59c-.84-.99-1.87-1.05-2.98-1.12-.38-.03-.77-.05-1.16-.11l-12.51-.81-12.5-.81c-.57-.01-1.14-.04-1.73-.07ZM348.97 411.64l4.48-.33c4.19-.34 8.4-.68 12.56-.42 2.93.26 3.13 4.75.25 5.42-2.9.73-5.97.84-9.03.96-1.76.06-3.52.13-5.23.31-1.17.04-2.36.15-3.55.25-2.47.22-4.96.44-7.36.12-2.45-.43-2.74-4.43-.52-5.35 1.77-.65 3.79-.73 5.76-.8.9-.04 1.79-.07 2.64-.16ZM345.51 425.36c2.91-.95 2.78-5.26-.48-5.63-2.85.03-5.72.55-8.57 1.06-1.35.24-2.69.48-4.02.67-.74.18-1.6.3-2.52.4-2.27.28-4.78.6-6.04 2.18-1.16 2.39.53 4.6 3.07 4.38 6.17-.74 12.5-1.76 18.56-3.06Z"/></g></g><g transform="translate(-279 -322)"><path d="M517 555.43c13.39-.24 28.7 3.46 38.6 12.98 5.97 5.58 9.72 13.37 9.9 21.58.32 10.21-3.84 19.58-9.89 27.58-9.04 11.85-21.87 20.72-35.47 26.57-7.32 2.84-14.4 5.71-22.15 7.24a86.28 86.28 0 0 1-50.03-5.3c-13.98-6.02-27.24-14.25-38.31-24.72-5.42-5.3-10.58-11.7-13.28-18.84-2.03-5.48-2.34-11.97 1.22-16.9 3.69-5.38 9.98-7.75 16.17-8.85 12.6-1.77 24.45.42 36.57 3.76 7.36-6.86 15.88-12.06 25.02-16.2 13-5.75 27.38-9.3 41.64-8.9Z" fill="#000"/><path d="M542.47 566.35c-3.47 2.67-7.33 4.74-10.83 7.34-4.3 4.07-7.6 10.96-12.77 14.1-5.16.83-10.5-3.33-15.18-1.12a174.6 174.6 0 0 1-28.5 7.9c-14.13 2.57-29.47 3.77-43.63.89-4.3-1.11-7.12 1.32-11.46 1.88-4.37-4.22-7.53-9.21-12.73-12.6 12.76-5.3 28.76-1.98 41.63 1.52 3.92 1.25 6.04-2.46 8.8-4.48 13.48-10.73 30.18-17.54 47.23-19.85 12.66-1.87 25.64-.74 37.44 4.4Z" fill="#fff"/><path d="M547.96 569.91c7.13 4.3 11.65 12.83 11.82 21.1-.18 7.43-2.97 13.98-6.8 20.23-6.37-2.56-13.17-3.29-20-2.88-14.35.89-28.53 4.42-41.9 9.67-9.04 3.64-18.05 8.23-25.74 14.27a32.46 32.46 0 0 0-8.76 10.38c-7.74-2.15-14.6-5.75-21.53-9.73-9.94-5.85-19.02-12.62-26.5-21.47-3.77-4.64-7.55-10.34-7.78-16.5-.14-2.32.91-4.42 1.72-6.54 5.4 3.65 9.36 8.64 14.22 12.85 4 3.4 9.21-.66 13.75.07 5.81.96 11.66 1.4 17.53 1.74a174.18 174.18 0 0 0 59.65-11.55c4.16.86 9.89 2.73 13.97 1.05 4.92-2.83 8.62-8.57 12.18-12.9 1.47-1.75 3.81-2.92 5.71-4.17 2.9-1.75 5.48-4.02 8.46-5.62Z" fill="#8F2E45"/><path d="M536 614.18c4.54-.1 8.95.63 13.3 1.9-9.23 11.12-22.42 19.3-35.85 24.38-16.26 6.04-34.23 8.32-51.21 3.94a34.42 34.42 0 0 1 6.76-7.39c8.9-7.26 20.2-12.2 31-15.97 11.5-3.83 23.85-6.67 36-6.86Z" fill="#EA869E"/></g><g transform="translate(-279 -322)"></g></g></svg>