<svg xmlns="http://www.w3.org/2000/svg" viewBox="0 0 400 400" fill="none" shape-rendering="auto"><metadata xmlns:rdf="http://www.w3.org/1999/02/22-rdf-syntax-ns#" xmlns:xsi="http://www.w3.org/2001/XMLSchema-instance" xmlns:dc="http://purl.org/dc/elements/1.1/" xmlns:dcterms="http://purl.org/dc/terms/"><rdf:RDF><rdf:Description><dc:title>Adventurer Neutral</dc:title><dc:creator>Lisa Wischofsky</dc:creator><dc:source xsi:type="dcterms:URI">https://www.figma.com/community/file/1184595184137881796</dc:source><dcterms:license xsi:type="dcterms:URI">https://creativecommons.org/licenses/by/4.0/</dcterms:license><dc:rights>Remix of „Adventurer Neutral” (https://www.figma.com/community/file/1184595184137881796) by „Lisa Wischofsky”, licensed under „CC BY 4.0” (https://creativecommons.org/licenses/by/4.0/)</dc:rights></rdf:Description></rdf:RDF></metadata><mask id="viewboxMask"><rect width="400" height="400" rx="0" ry="0" x="0" y="0" fill="#fff" /></mask><g mask="url(#viewboxMask)"><rect fill="#9e5622" width="400" height="400" x="0" y="0" /><g transform="translate(-279 -322)"><path d="M380.24 447.22a55.22 55.22 0 0 1 38.11 9.43 55.05 55.05 0 0 1 22.82 36.06c1.19 8.28.93 17.07-1.63 25.08a54.93 54.93 0 0 1-25.11 31.65 54.67 54.67 0 0 1-33.47 6.98c-16.14-1.57-31.14-10.83-39.98-24.4-5.54-8.33-8.46-18.04-9.11-27.98-.3-12.3 3.26-24.62 10.56-34.57a55.01 55.01 0 0 1 37.81-22.25Z" fill="#000"/><path d="M378.24 453.29c19.42-3.65 39.86 5.43 50.31 22.16 6.62 10.5 9.5 23.85 6.67 36.03a49.3 49.3 0 0 1-22.5 32.27 50.26 50.26 0 0 1-22.73 7.28c-19.82 1.35-39.3-10.22-47.62-28.26a49.26 49.26 0 0 1 35.87-69.48Z" fill="#fff"/><path d="M589.99 474.91c13.08-.6 26.98-1.27 39.85 1.48 2.15.57 2.9 1.32 2.29 3.67-2.1 1.76-6.1 3.3-6.83 6.12-.03 6 9.05 5.9 9.7 10.8-.3 2.95-2.43 3.33-4.98 3.14a384.71 384.71 0 0 0-23.02-1.4c-16.02-.1-32.02-.24-48 .87-7.57.7-15.22.63-22.78 1.17-11.11 1.03-22.13 1.31-33.14 3.36-2.67.5-5.5 1.11-8.23 1.06-2.01-1.24-3.05-5.54-.56-6.86 5.33-3.02 11.33-5.1 17.18-6.87 15.08-4.97 30.76-8.25 46.26-11.64 10.64-2.42 21.43-3.76 32.26-4.9ZM405.43 479.68c3.46-.9 6.9-1 10.4-.2 8.85 2.08 15.44 10.42 15.31 19.54.24 11.12-10.03 21.17-21.19 20.13-9.28-.52-17.48-7.87-18.76-17.12-1.7-9.8 4.73-19.67 14.24-22.35Z" fill="#000"/></g><g transform="translate(-279 -322)"><path d="M530.96 352.34c21.47-3.31 42.8 3.14 60.6 15.1 12.06 8.18 22.9 19.67 28.97 33.02 1.1 2.96-.3 3.73-2.5 5.27-3.96-2.26-6.88-5.58-10.48-8.3-13-9.77-28.03-16.37-43.78-20.24-14.93-3.5-30.56-5.05-45.8-2.8-4.78.41-9.28 1.92-13.97 2.67-2.41.2-5.1-1.2-4.2-4.04 1.89-4.15 4.22-8.5 7.59-11.65 6.04-5.62 15.64-7.85 23.57-9.03ZM383 428.83c13.38-.82 26.33-.6 39.03 4.23 5.85 2.37 11.52 5.91 13.93 12.05 1.38 4.31.91 8.87-1.73 12.61-4.9-.76-9.4-2.6-14.18-3.82-23.13-6.33-47.19-8-71.04-5.96-4.88.33-9.86 2.03-14.72 1.78-1.78-.48-1.17-2.2-.97-3.54.88-2.5 3.58-3.86 5.76-5.1 13.75-7.24 28.55-10.64 43.92-12.25Z" fill="#000"/></g><g transform="translate(-279 -322)"><path d="M579.99 568.69c2.42 1 1.92 3.4 1.38 5.45-6.78 13.35-16.08 25.18-28.35 33.9-17.2 12.5-38.88 18.4-60.02 17.58-26.81-.96-53.07-12.04-73.44-29.31-.4-2.42-.5-3.7 1.45-5.42 51.83-7.13 106.78-15.03 158.98-22.2Z" fill="#000"/><path d="M573.86 575.51a83.4 83.4 0 0 1-36.37 35 89.24 89.24 0 0 1-40.5 9.18c-24.7.18-49-9.01-68.57-23.87 47.93-6.6 97.73-13.8 145.44-20.31Z" fill="#8F2E45"/></g><g transform="translate(-279 -322)"></g></g></svg>